<svg xmlns="http://www.w3.org/2000/svg" viewBox="0 0 512 512">
  <defs>
    <linearGradient id="bg" x1="0%" y1="0%" x2="0%" y2="100%">
      <stop offset="0%" style="stop-color:#a8d8f0;stop-opacity:1" />
      <stop offset="100%" style="stop-color:#6bb9e8;stop-opacity:1" />
    </linearGradient>
    <linearGradient id="leaf" x1="0%" y1="0%" x2="100%" y2="100%">
      <stop offset="0%" style="stop-color:#8bc34a;stop-opacity:1" />
      <stop offset="100%" style="stop-color:#4caf50;stop-opacity:1" />
    </linearGradient>
  </defs>
  <rect width="512" height="512" rx="100" ry="100" fill="url(#bg)"/>
  <g transform="translate(256, 270)" fill="none" stroke="white" stroke-width="28" stroke-linecap="round" stroke-linejoin="round">
    <path d="M-80,-120 C-80,-180 -30,-190 0,-150 C30,-190 80,-180 80,-120 C80,-40 50,60 40,120 C35,145 20,150 10,140 C0,130 -10,80 -10,60 C-10,40 10,40 10,60 C10,80 0,130 -10,140 C-20,150 -35,145 -40,120 C-50,60 -80,-40 -80,-120 Z"/>
  </g>
  <ellipse cx="280" cy="210" rx="18" ry="30" fill="url(#leaf)" transform="rotate(-30, 280, 210)"/>
</svg>
